<?xml version="1.0" encoding="utf-8"?>
<svg viewBox="-122.4982 -59.3502 307.4344 258.7736" width="307.434px" height="258.774px" preserveAspectRatio="none" xmlns="http://www.w3.org/2000/svg" xmlns:bx="https://boxy-svg.com"><g transform="matrix(-0.00707400078, -0.999974906445, 0.999974906445, -0.00707400078, -32.415982730094, -1.592490783592)" style="transform-origin: 63.635px 71.6291px;" id="object-0"><ellipse style="fill: rgb(35, 61, 78);" cx="63.635" cy="72.261" rx="128.309" ry="128.309"/><ellipse style="fill: rgb(255, 255, 255); stroke: rgb(255, 255, 255);" cx="115.496" cy="120.919" rx="99.777" ry="99.777" transform="matrix(0.99999, 0.004461, -0.004461, 0.99999, -50.312341, -49.820597)"><title>Outer circle</title></ellipse><ellipse style="fill: rgb(255, 255, 255); stroke: rgb(255, 255, 255);" cx="32.774" cy="120.466" rx="24.29" ry="24.29" transform="matrix(0.99999, 0.004461, -0.004461, 0.99999, -50.31237, -49.820597)"><title>Left spout</title></ellipse><ellipse style="fill: rgb(255, 255, 255); stroke: rgb(255, 255, 255);" cx="197.777" cy="120.466" rx="24.29" ry="24.29" transform="matrix(0.99999, 0.004461, -0.004461, 0.99999, -50.312307, -49.820594)"><title>Right spout</title></ellipse><g transform="matrix(0.774033, -0.633145, 0.633145, 0.774033, 7.38939, 43.423649)"><title>Square handle</title><path d="M 98.959 0 H 133.959 A 15 15 0 0 1 148.959 15 V 27.071 A 8.929 8.929 0 0 1 140.03 36 H 92.888 A 8.929 8.929 0 0 1 83.959 27.071 V 15 A 15 15 0 0 1 98.959 0 Z M 91.245 18 V 23.603 A 5.286 5.286 0 0 0 96.531 28.889 H 136.387 A 5.286 5.286 0 0 0 141.673 23.603 V 18 A 10.889 10.889 0 0 0 130.784 7.111 H 102.134 A 10.889 10.889 0 0 0 91.245 18 Z" style="transform-box: fill-box; transform-origin: 50% 50%; fill: rgb(255, 255, 255); stroke: rgb(255, 255, 255);" transform="matrix(0.771201, 0.636592, -0.636592, 0.771201, -23.730427, -38.689284)" bx:shape="frame 83.959 0 65 36 7.286 7.111 15 15 8.929 8.929 1@ad2ef423"><title>Square handle</title></path><g><path style="transform-origin: 213.508px 403.184px; fill: rgb(255, 255, 255); stroke: rgb(255, 255, 255);" transform="matrix(0.137622, 0.622731, -0.679441, 0.150153, -151.512821, -439.466488)" d="M 209.464 394.282 A 8.943 8.943 0 0 1 209.464 412.086 A 17.953 17.953 0 0 0 209.464 394.282 Z" bx:shape="crescent 208.607 403.184 8.943 169 0.68 1@0f9fee29"/><path style="transform-origin: 213.508px 403.184px; fill: rgb(255, 255, 255); stroke: rgb(255, 255, 255);" transform="matrix(-0.620037, -0.149294, 0.162891, -0.6765, -99.889212, -397.78965)" d="M 209.464 394.282 A 8.943 8.943 0 0 1 209.464 412.086 A 17.953 17.953 0 0 0 209.464 394.282 Z" bx:shape="crescent 208.607 403.184 8.943 169 0.68 1@0f9fee29"/><path style="transform-origin: 213.508px 403.184px; fill: rgb(255, 255, 255); stroke: rgb(255, 255, 255);" transform="matrix(0.060704, 0.63486, -0.692675, 0.066231, -105.932548, -405.763363)" d="M 207.517 394.308 A 8.943 8.943 0 1 1 207.517 412.06 A 9.864 9.864 0 0 0 207.517 394.308 Z" bx:shape="crescent 208.607 403.184 8.943 194 0.75 1@3434eafb"/><path style="transform-origin: 213.508px 403.184px; fill: rgb(255, 255, 255); stroke: rgb(255, 255, 255);" transform="matrix(-0.633704, 0.071775, -0.078311, -0.691414, -140.282444, -435.382296)" d="M 207.517 394.308 A 8.943 8.943 0 1 1 207.517 412.06 A 10.552 10.552 0 0 0 207.517 394.308 Z" bx:shape="crescent 208.607 403.184 8.943 194 0.71 1@73ec88b1"/></g></g><ellipse style="stroke-width: 4px; stroke: rgb(35, 61, 78); fill: rgb(255, 255, 255);" cx="116.669" cy="121.845" rx="73.549" ry="73.549" transform="matrix(0.99999, 0.004461, -0.004461, 0.99999, -50.312341, -49.820598)"><title>Inner circle</title></ellipse><g transform="matrix(-0.766044, 0.642787, -0.642787, -0.766044, -27.935198, 194.910538)" style="transform-origin: 92.3208px -20.6893px;"><title>Square handle</title><path d="M 98.959 0 H 133.959 A 15 15 0 0 1 148.959 15 V 27.071 A 8.929 8.929 0 0 1 140.03 36 H 92.888 A 8.929 8.929 0 0 1 83.959 27.071 V 15 A 15 15 0 0 1 98.959 0 Z M 91.245 18 V 23.603 A 5.286 5.286 0 0 0 96.531 28.889 H 136.387 A 5.286 5.286 0 0 0 141.673 23.603 V 18 A 10.889 10.889 0 0 0 130.784 7.111 H 102.134 A 10.889 10.889 0 0 0 91.245 18 Z" style="transform-box: fill-box; transform-origin: 50% 50%; fill: rgb(255, 255, 255); stroke: rgb(255, 255, 255);" transform="matrix(0.771201, 0.636592, -0.636592, 0.771201, -23.730427, -38.689284)" bx:shape="frame 83.959 0 65 36 7.286 7.111 15 15 8.929 8.929 1@ad2ef423"><title>Square handle</title></path><g><path style="transform-origin: 213.508px 403.184px; fill: rgb(255, 255, 255); stroke: rgb(255, 255, 255);" transform="matrix(0.137622, 0.622731, -0.679441, 0.150153, -151.512821, -439.466488)" d="M 209.464 394.282 A 8.943 8.943 0 0 1 209.464 412.086 A 17.953 17.953 0 0 0 209.464 394.282 Z" bx:shape="crescent 208.607 403.184 8.943 169 0.68 1@0f9fee29"/><path style="transform-origin: 213.508px 403.184px; fill: rgb(255, 255, 255); stroke: rgb(255, 255, 255);" transform="matrix(-0.620037, -0.149294, 0.162891, -0.6765, -99.889212, -397.78965)" d="M 209.464 394.282 A 8.943 8.943 0 0 1 209.464 412.086 A 17.953 17.953 0 0 0 209.464 394.282 Z" bx:shape="crescent 208.607 403.184 8.943 169 0.68 1@0f9fee29"/><path style="transform-origin: 213.508px 403.184px; fill: rgb(255, 255, 255); stroke: rgb(255, 255, 255);" transform="matrix(0.060704, 0.63486, -0.692675, 0.066231, -105.932548, -405.763363)" d="M 207.517 394.308 A 8.943 8.943 0 1 1 207.517 412.06 A 9.864 9.864 0 0 0 207.517 394.308 Z" bx:shape="crescent 208.607 403.184 8.943 194 0.75 1@3434eafb"/><path style="transform-origin: 213.508px 403.184px; fill: rgb(255, 255, 255); stroke: rgb(255, 255, 255);" transform="matrix(-0.633704, 0.071775, -0.078311, -0.691414, -140.282444, -435.382296)" d="M 207.517 394.308 A 8.943 8.943 0 1 1 207.517 412.06 A 10.552 10.552 0 0 0 207.517 394.308 Z" bx:shape="crescent 208.607 403.184 8.943 194 0.71 1@73ec88b1"/></g></g></g></svg>