<svg id="svg" version="1.1" xmlns="http://www.w3.org/2000/svg" xmlns:xlink="http://www.w3.org/1999/xlink" width="30" height="30" viewBox="0, 0, 400,437.73584905660374"><g id="svgg"><path id="path0" d="M159.000 49.839 C 158.340 49.935,155.460 50.366,152.600 50.797 C 149.740 51.228,145.420 51.781,143.000 52.026 C 136.626 52.672,133.160 53.404,130.791 54.604 C 129.643 55.186,126.880 56.013,124.652 56.441 C 122.423 56.869,119.672 57.670,118.537 58.221 C 117.403 58.772,115.161 59.669,113.555 60.215 C 111.949 60.762,110.177 61.642,109.617 62.172 C 109.058 62.703,107.402 63.613,105.937 64.196 C 104.472 64.779,102.973 65.588,102.605 65.994 C 102.238 66.400,100.916 67.140,99.668 67.637 C 98.421 68.135,96.426 69.230,95.235 70.071 C 94.044 70.912,92.849 71.600,92.580 71.600 C 92.310 71.600,91.261 72.365,90.249 73.300 C 87.399 75.933,85.048 77.908,83.143 79.272 C 82.184 79.958,80.642 81.168,79.716 81.960 C 78.790 82.752,76.932 84.300,75.587 85.400 C 74.243 86.500,72.840 87.750,72.471 88.179 C 72.102 88.607,70.990 89.813,70.000 90.859 C 67.776 93.207,65.914 95.440,64.309 97.684 C 63.633 98.628,62.432 100.149,61.640 101.065 C 60.848 101.980,59.300 103.830,58.200 105.176 C 57.100 106.521,55.635 108.292,54.944 109.111 C 54.253 109.930,53.216 111.760,52.640 113.178 C 52.064 114.596,51.252 116.126,50.836 116.578 C 50.420 117.030,49.514 118.656,48.823 120.192 C 48.132 121.727,47.220 123.352,46.797 123.803 C 46.374 124.254,45.755 125.394,45.422 126.337 C 45.090 127.280,44.192 129.075,43.427 130.326 C 42.434 131.951,41.817 133.689,41.267 136.417 C 40.844 138.516,40.037 141.143,39.473 142.255 C 38.910 143.367,38.152 145.880,37.790 147.839 C 37.428 149.797,36.692 152.480,36.154 153.800 C 32.877 161.849,32.756 204.442,35.993 210.785 C 36.412 211.607,37.123 214.117,37.574 216.364 C 38.024 218.611,38.936 221.687,39.600 223.200 C 40.264 224.713,41.086 227.447,41.426 229.276 C 41.843 231.521,42.404 233.120,43.152 234.200 C 43.762 235.080,44.682 236.856,45.196 238.147 C 45.710 239.438,46.563 241.008,47.090 241.634 C 47.618 242.261,48.489 243.896,49.026 245.267 C 49.563 246.638,50.440 248.219,50.974 248.780 C 51.508 249.341,52.333 250.842,52.807 252.116 C 53.281 253.389,54.368 255.279,55.223 256.316 C 56.077 257.352,57.637 259.259,58.688 260.553 C 59.740 261.848,61.160 263.468,61.844 264.153 C 62.529 264.839,63.588 266.165,64.197 267.100 C 64.807 268.035,65.454 268.800,65.634 268.800 C 65.814 268.800,66.529 269.625,67.224 270.634 C 69.149 273.432,73.271 277.865,75.289 279.308 C 76.283 280.019,77.839 281.230,78.747 282.000 C 79.655 282.770,81.433 284.245,82.699 285.279 C 83.964 286.312,85.720 287.797,86.600 288.578 C 91.327 292.775,92.409 293.580,94.679 294.589 C 96.042 295.195,97.462 296.026,97.833 296.437 C 98.205 296.847,99.519 297.558,100.754 298.016 C 101.989 298.474,103.674 299.385,104.498 300.041 C 105.321 300.697,106.761 301.501,107.698 301.828 C 108.634 302.155,110.300 303.035,111.400 303.785 C 112.573 304.585,114.557 305.432,116.200 305.834 C 117.740 306.212,119.886 306.962,120.968 307.501 C 122.051 308.041,124.958 308.902,127.428 309.414 C 129.898 309.926,132.818 310.801,133.918 311.358 C 136.249 312.539,139.156 313.038,145.800 313.395 C 151.822 313.719,156.660 314.218,161.858 315.052 C 165.604 315.653,166.265 315.653,170.458 315.054 C 172.956 314.697,178.510 314.125,182.800 313.784 C 191.353 313.104,194.993 312.483,197.861 311.214 C 198.897 310.756,201.828 310.008,204.373 309.553 C 207.822 308.936,209.611 308.387,211.400 307.396 C 212.720 306.664,214.610 305.859,215.600 305.607 C 216.590 305.355,218.390 304.552,219.600 303.823 C 220.810 303.094,222.804 302.209,224.031 301.857 C 225.258 301.506,226.940 300.758,227.767 300.196 C 228.595 299.635,230.326 298.643,231.613 297.993 C 232.900 297.344,234.099 296.554,234.277 296.239 C 234.455 295.924,235.770 295.008,237.200 294.203 C 238.630 293.398,240.160 292.415,240.600 292.020 C 241.959 290.797,243.070 290.400,245.131 290.400 C 247.358 290.400,247.600 290.680,247.600 293.258 C 247.600 295.823,248.858 303.297,249.504 304.576 C 250.908 307.351,315.820 372.450,318.400 373.669 C 319.390 374.137,320.824 374.982,321.588 375.547 C 324.226 377.501,329.256 377.087,333.856 374.539 C 338.848 371.773,355.822 355.002,358.107 350.579 C 360.818 345.329,359.741 337.737,355.575 332.731 C 351.640 328.004,291.582 268.407,289.877 267.539 C 288.955 267.069,287.627 266.249,286.928 265.716 C 285.437 264.581,282.232 264.020,277.175 264.008 C 272.322 263.997,270.902 262.760,273.155 260.507 C 273.790 259.872,274.779 258.425,275.354 257.291 C 275.928 256.157,276.914 254.638,277.544 253.915 C 278.174 253.192,279.004 251.970,279.389 251.200 C 279.774 250.430,280.590 249.260,281.201 248.600 C 281.813 247.940,282.715 246.280,283.207 244.910 C 283.698 243.541,284.532 241.834,285.060 241.118 C 285.589 240.402,286.373 238.633,286.804 237.186 C 287.235 235.740,288.117 233.756,288.765 232.778 C 289.412 231.800,290.293 229.740,290.721 228.200 C 291.149 226.660,291.962 224.303,292.528 222.963 C 293.094 221.623,293.921 218.356,294.366 215.705 C 294.811 213.053,295.629 209.678,296.184 208.205 C 299.059 200.567,298.940 163.058,296.017 155.643 C 295.617 154.629,294.890 151.820,294.401 149.400 C 293.911 146.980,293.062 144.114,292.514 143.031 C 291.965 141.948,291.176 139.368,290.759 137.298 C 290.256 134.795,289.537 132.701,288.612 131.048 C 287.847 129.680,286.940 127.763,286.595 126.786 C 286.251 125.810,285.542 124.559,285.020 124.006 C 284.498 123.453,283.603 121.840,283.031 120.422 C 282.460 119.004,281.636 117.464,281.200 117.000 C 280.764 116.536,279.936 114.996,279.360 113.578 C 278.784 112.160,277.702 110.324,276.956 109.499 C 276.210 108.673,275.600 107.801,275.600 107.562 C 275.600 107.322,274.876 106.377,273.992 105.463 C 272.024 103.429,269.378 100.296,266.200 96.241 C 262.515 91.538,259.288 87.923,257.594 86.600 C 256.749 85.940,254.779 84.320,253.215 83.000 C 251.652 81.680,249.514 79.970,248.465 79.200 C 247.416 78.430,246.027 77.300,245.379 76.689 C 242.273 73.761,240.026 72.012,238.175 71.081 C 237.061 70.521,235.920 69.785,235.638 69.446 C 235.357 69.107,234.152 68.465,232.960 68.020 C 231.769 67.574,229.895 66.591,228.797 65.836 C 227.699 65.080,226.126 64.249,225.300 63.988 C 224.475 63.726,223.105 62.968,222.255 62.301 C 221.405 61.635,219.487 60.676,217.992 60.171 C 216.497 59.665,214.402 58.810,213.337 58.271 C 212.272 57.733,209.585 56.931,207.367 56.489 C 205.149 56.048,202.330 55.212,201.102 54.631 C 198.444 53.373,195.015 52.680,187.200 51.819 C 184.010 51.468,179.960 50.911,178.200 50.581 C 175.110 50.001,161.493 49.475,159.000 49.839 M174.639 101.788 C 183.417 102.369,184.303 102.524,187.425 104.020 C 188.318 104.448,190.696 105.150,192.708 105.580 C 196.217 106.330,198.502 107.195,198.968 107.948 C 199.088 108.142,200.224 108.712,201.493 109.213 C 202.762 109.714,204.388 110.558,205.107 111.088 C 205.825 111.617,207.265 112.424,208.307 112.880 C 209.348 113.335,210.920 114.318,211.800 115.063 C 212.680 115.808,214.210 117.102,215.200 117.938 C 216.190 118.774,217.720 119.977,218.600 120.612 C 221.024 122.361,224.854 126.001,226.200 127.835 C 227.411 129.485,229.390 131.891,232.046 134.940 C 232.842 135.853,233.812 137.230,234.203 138.000 C 234.593 138.770,235.323 139.892,235.825 140.494 C 236.327 141.095,237.121 142.612,237.590 143.865 C 238.059 145.117,238.947 146.717,239.563 147.419 C 240.295 148.252,240.998 149.861,241.587 152.048 C 242.084 153.892,242.830 156.070,243.247 156.888 C 244.365 159.085,245.063 162.120,245.774 167.867 C 246.123 170.690,246.706 175.101,247.070 177.668 C 247.713 182.200,247.706 182.526,246.859 188.868 C 246.379 192.461,245.792 196.930,245.555 198.800 C 244.974 203.379,244.459 205.442,243.336 207.696 C 242.816 208.739,242.111 210.794,241.771 212.263 C 241.102 215.149,240.391 216.777,239.466 217.545 C 239.144 217.812,238.472 219.059,237.974 220.316 C 237.475 221.572,236.487 223.410,235.777 224.400 C 235.068 225.390,234.220 226.845,233.892 227.633 C 233.565 228.421,232.765 229.501,232.115 230.033 C 231.465 230.565,230.528 231.675,230.034 232.500 C 229.539 233.325,228.975 234.000,228.780 234.000 C 228.585 234.000,227.710 234.969,226.835 236.153 C 225.960 237.337,223.389 239.937,221.122 241.930 C 218.855 243.923,216.389 246.149,215.642 246.876 C 214.896 247.604,213.726 248.532,213.042 248.939 C 212.359 249.346,211.260 250.175,210.600 250.781 C 209.940 251.386,208.590 252.194,207.600 252.576 C 206.610 252.958,204.744 253.975,203.454 254.835 C 202.164 255.696,200.888 256.400,200.618 256.400 C 200.348 256.400,198.703 257.102,196.963 257.959 C 194.909 258.971,192.366 259.808,189.711 260.346 C 187.461 260.801,184.915 261.533,184.053 261.973 C 179.172 264.463,152.398 264.448,147.507 261.953 C 146.622 261.501,143.986 260.769,141.649 260.326 C 138.969 259.817,136.661 259.110,135.400 258.411 C 134.300 257.801,132.500 256.980,131.400 256.587 C 130.300 256.194,128.636 255.294,127.702 254.588 C 126.768 253.882,125.199 253.080,124.216 252.805 C 123.195 252.519,121.709 251.639,120.748 250.752 C 119.823 249.898,118.913 249.200,118.725 249.200 C 118.536 249.200,117.621 248.513,116.691 247.673 C 115.761 246.833,114.370 245.718,113.600 245.196 C 112.387 244.372,108.933 241.499,107.253 239.916 C 106.630 239.328,104.138 236.148,102.502 233.853 C 101.896 233.002,100.635 231.497,99.700 230.508 C 98.765 229.520,98.000 228.467,98.000 228.169 C 98.000 227.871,97.457 227.010,96.794 226.254 C 96.131 225.499,95.044 223.562,94.380 221.951 C 93.715 220.340,92.803 218.629,92.352 218.148 C 91.900 217.668,91.030 215.677,90.418 213.724 C 89.806 211.771,88.925 209.430,88.462 208.521 C 86.858 205.377,83.801 185.454,84.178 180.600 C 84.742 173.337,87.406 158.756,88.600 156.400 C 89.138 155.339,89.926 153.215,90.351 151.680 C 91.245 148.452,91.618 147.670,92.746 146.649 C 93.197 146.241,93.941 144.779,94.400 143.400 C 94.859 142.021,95.606 140.557,96.060 140.146 C 96.514 139.736,97.227 138.729,97.646 137.910 C 98.064 137.090,99.170 135.528,100.103 134.439 C 103.966 129.929,105.052 128.589,106.054 127.097 C 106.633 126.234,107.658 125.193,108.332 124.783 C 109.005 124.373,109.863 123.570,110.238 122.999 C 110.612 122.427,111.387 121.715,111.959 121.417 C 112.532 121.120,114.024 120.004,115.276 118.938 C 120.435 114.545,121.220 113.963,123.021 113.191 C 124.056 112.747,125.417 111.952,126.045 111.423 C 126.674 110.895,128.205 110.081,129.450 109.616 C 130.694 109.150,132.462 108.231,133.379 107.572 C 134.600 106.695,136.080 106.167,138.919 105.596 C 141.050 105.168,143.650 104.389,144.697 103.866 C 147.619 102.405,150.195 102.071,164.800 101.258 C 165.350 101.228,169.778 101.466,174.639 101.788 " stroke="none" fill="#f9f9f9" fill-rule="evenodd"></path><path id="path1" d="M0.000 218.800 L 0.000 437.600 200.000 437.600 L 400.000 437.600 400.000 218.800 L 400.000 0.000 200.000 0.000 L 0.000 0.000 0.000 218.800 M178.200 50.581 C 179.960 50.911,184.010 51.468,187.200 51.819 C 195.015 52.680,198.444 53.373,201.102 54.631 C 202.330 55.212,205.149 56.048,207.367 56.489 C 209.585 56.931,212.272 57.733,213.337 58.271 C 214.402 58.810,216.497 59.665,217.992 60.171 C 219.487 60.676,221.405 61.635,222.255 62.301 C 223.105 62.968,224.475 63.726,225.300 63.988 C 226.126 64.249,227.699 65.080,228.797 65.836 C 229.895 66.591,231.769 67.574,232.960 68.020 C 234.152 68.465,235.357 69.107,235.638 69.446 C 235.920 69.785,237.061 70.521,238.175 71.081 C 240.026 72.012,242.273 73.761,245.379 76.689 C 246.027 77.300,247.416 78.430,248.465 79.200 C 249.514 79.970,251.652 81.680,253.215 83.000 C 254.779 84.320,256.749 85.940,257.594 86.600 C 259.288 87.923,262.515 91.538,266.200 96.241 C 269.378 100.296,272.024 103.429,273.992 105.463 C 274.876 106.377,275.600 107.322,275.600 107.562 C 275.600 107.801,276.210 108.673,276.956 109.499 C 277.702 110.324,278.784 112.160,279.360 113.578 C 279.936 114.996,280.764 116.536,281.200 117.000 C 281.636 117.464,282.460 119.004,283.031 120.422 C 283.603 121.840,284.498 123.453,285.020 124.006 C 285.542 124.559,286.251 125.810,286.595 126.786 C 286.940 127.763,287.847 129.680,288.612 131.048 C 289.537 132.701,290.256 134.795,290.759 137.298 C 291.176 139.368,291.965 141.948,292.514 143.031 C 293.062 144.114,293.911 146.980,294.401 149.400 C 294.890 151.820,295.617 154.629,296.017 155.643 C 298.940 163.058,299.059 200.567,296.184 208.205 C 295.629 209.678,294.811 213.053,294.366 215.705 C 293.921 218.356,293.094 221.623,292.528 222.963 C 291.962 224.303,291.149 226.660,290.721 228.200 C 290.293 229.740,289.412 231.800,288.765 232.778 C 288.117 233.756,287.235 235.740,286.804 237.186 C 286.373 238.633,285.589 240.402,285.060 241.118 C 284.532 241.834,283.698 243.541,283.207 244.910 C 282.715 246.280,281.813 247.940,281.201 248.600 C 280.590 249.260,279.774 250.430,279.389 251.200 C 279.004 251.970,278.174 253.192,277.544 253.915 C 276.914 254.638,275.928 256.157,275.354 257.291 C 274.779 258.425,273.790 259.872,273.155 260.507 C 270.902 262.760,272.322 263.997,277.175 264.008 C 282.232 264.020,285.437 264.581,286.928 265.716 C 287.627 266.249,288.955 267.069,289.877 267.539 C 291.582 268.407,351.640 328.004,355.575 332.731 C 359.741 337.737,360.818 345.329,358.107 350.579 C 355.822 355.002,338.848 371.773,333.856 374.539 C 329.256 377.087,324.226 377.501,321.588 375.547 C 320.824 374.982,319.390 374.137,318.400 373.669 C 315.820 372.450,250.908 307.351,249.504 304.576 C 248.858 303.297,247.600 295.823,247.600 293.258 C 247.600 290.680,247.358 290.400,245.131 290.400 C 243.070 290.400,241.959 290.797,240.600 292.020 C 240.160 292.415,238.630 293.398,237.200 294.203 C 235.770 295.008,234.455 295.924,234.277 296.239 C 234.099 296.554,232.900 297.344,231.613 297.993 C 230.326 298.643,228.595 299.635,227.767 300.196 C 226.940 300.758,225.258 301.506,224.031 301.857 C 222.804 302.209,220.810 303.094,219.600 303.823 C 218.390 304.552,216.590 305.355,215.600 305.607 C 214.610 305.859,212.720 306.664,211.400 307.396 C 209.611 308.387,207.822 308.936,204.373 309.553 C 201.828 310.008,198.897 310.756,197.861 311.214 C 194.993 312.483,191.353 313.104,182.800 313.784 C 178.510 314.125,172.956 314.697,170.458 315.054 C 166.265 315.653,165.604 315.653,161.858 315.052 C 156.660 314.218,151.822 313.719,145.800 313.395 C 139.156 313.038,136.249 312.539,133.918 311.358 C 132.818 310.801,129.898 309.926,127.428 309.414 C 124.958 308.902,122.051 308.041,120.968 307.501 C 119.886 306.962,117.740 306.212,116.200 305.834 C 114.557 305.432,112.573 304.585,111.400 303.785 C 110.300 303.035,108.634 302.155,107.698 301.828 C 106.761 301.501,105.321 300.697,104.498 300.041 C 103.674 299.385,101.989 298.474,100.754 298.016 C 99.519 297.558,98.205 296.847,97.833 296.437 C 97.462 296.026,96.042 295.195,94.679 294.589 C 92.409 293.580,91.327 292.775,86.600 288.578 C 85.720 287.797,83.964 286.312,82.699 285.279 C 81.433 284.245,79.655 282.770,78.747 282.000 C 77.839 281.230,76.283 280.019,75.289 279.308 C 73.271 277.865,69.149 273.432,67.224 270.634 C 66.529 269.625,65.814 268.800,65.634 268.800 C 65.454 268.800,64.807 268.035,64.197 267.100 C 63.588 266.165,62.529 264.839,61.844 264.153 C 61.160 263.468,59.740 261.848,58.688 260.553 C 57.637 259.259,56.077 257.352,55.223 256.316 C 54.368 255.279,53.281 253.389,52.807 252.116 C 52.333 250.842,51.508 249.341,50.974 248.780 C 50.440 248.219,49.563 246.638,49.026 245.267 C 48.489 243.896,47.618 242.261,47.090 241.634 C 46.563 241.008,45.710 239.438,45.196 238.147 C 44.682 236.856,43.762 235.080,43.152 234.200 C 42.404 233.120,41.843 231.521,41.426 229.276 C 41.086 227.447,40.264 224.713,39.600 223.200 C 38.936 221.687,38.024 218.611,37.574 216.364 C 37.123 214.117,36.412 211.607,35.993 210.785 C 32.756 204.442,32.877 161.849,36.154 153.800 C 36.692 152.480,37.428 149.797,37.790 147.839 C 38.152 145.880,38.910 143.367,39.473 142.255 C 40.037 141.143,40.844 138.516,41.267 136.417 C 41.817 133.689,42.434 131.951,43.427 130.326 C 44.192 129.075,45.090 127.280,45.422 126.337 C 45.755 125.394,46.374 124.254,46.797 123.803 C 47.220 123.352,48.132 121.727,48.823 120.192 C 49.514 118.656,50.420 117.030,50.836 116.578 C 51.252 116.126,52.064 114.596,52.640 113.178 C 53.216 111.760,54.253 109.930,54.944 109.111 C 55.635 108.292,57.100 106.521,58.200 105.176 C 59.300 103.830,60.848 101.980,61.640 101.065 C 62.432 100.149,63.633 98.628,64.309 97.684 C 65.914 95.440,67.776 93.207,70.000 90.859 C 70.990 89.813,72.102 88.607,72.471 88.179 C 72.840 87.750,74.243 86.500,75.587 85.400 C 76.932 84.300,78.790 82.752,79.716 81.960 C 80.642 81.168,82.184 79.958,83.143 79.272 C 85.048 77.908,87.399 75.933,90.249 73.300 C 91.261 72.365,92.310 71.600,92.580 71.600 C 92.849 71.600,94.044 70.912,95.235 70.071 C 96.426 69.230,98.421 68.135,99.668 67.637 C 100.916 67.140,102.238 66.400,102.605 65.994 C 102.973 65.588,104.472 64.779,105.937 64.196 C 107.402 63.613,109.058 62.703,109.617 62.172 C 110.177 61.642,111.949 60.762,113.555 60.215 C 115.161 59.669,117.403 58.772,118.537 58.221 C 119.672 57.670,122.423 56.869,124.652 56.441 C 126.880 56.013,129.643 55.186,130.791 54.604 C 133.160 53.404,136.626 52.672,143.000 52.026 C 145.420 51.781,149.740 51.228,152.600 50.797 C 155.460 50.366,158.340 49.935,159.000 49.839 C 161.493 49.475,175.110 50.001,178.200 50.581 M156.400 101.811 C 148.202 102.361,147.438 102.496,144.697 103.866 C 143.650 104.389,141.050 105.168,138.919 105.596 C 136.080 106.167,134.600 106.695,133.379 107.572 C 132.462 108.231,130.694 109.150,129.450 109.616 C 128.205 110.081,126.674 110.895,126.045 111.423 C 125.417 111.952,124.056 112.747,123.021 113.191 C 121.220 113.963,120.435 114.545,115.276 118.938 C 114.024 120.004,112.532 121.120,111.959 121.417 C 111.387 121.715,110.612 122.427,110.238 122.999 C 109.863 123.570,109.005 124.373,108.332 124.783 C 107.658 125.193,106.633 126.234,106.054 127.097 C 105.052 128.589,103.966 129.929,100.103 134.439 C 99.170 135.528,98.064 137.090,97.646 137.910 C 97.227 138.729,96.514 139.736,96.060 140.146 C 95.606 140.557,94.859 142.021,94.400 143.400 C 93.941 144.779,93.197 146.241,92.746 146.649 C 91.618 147.670,91.245 148.452,90.351 151.680 C 89.926 153.215,89.138 155.339,88.600 156.400 C 87.406 158.756,84.742 173.337,84.178 180.600 C 83.801 185.454,86.858 205.377,88.462 208.521 C 88.925 209.430,89.806 211.771,90.418 213.724 C 91.030 215.677,91.900 217.668,92.352 218.148 C 92.803 218.629,93.715 220.340,94.380 221.951 C 95.044 223.562,96.131 225.499,96.794 226.254 C 97.457 227.010,98.000 227.871,98.000 228.169 C 98.000 228.467,98.765 229.520,99.700 230.508 C 100.635 231.497,101.896 233.002,102.502 233.853 C 104.138 236.148,106.630 239.328,107.253 239.916 C 108.933 241.499,112.387 244.372,113.600 245.196 C 114.370 245.718,115.761 246.833,116.691 247.673 C 117.621 248.513,118.536 249.200,118.725 249.200 C 118.913 249.200,119.823 249.898,120.748 250.752 C 121.709 251.639,123.195 252.519,124.216 252.805 C 125.199 253.080,126.768 253.882,127.702 254.588 C 128.636 255.294,130.300 256.194,131.400 256.587 C 132.500 256.980,134.300 257.801,135.400 258.411 C 136.661 259.110,138.969 259.817,141.649 260.326 C 143.986 260.769,146.622 261.501,147.507 261.953 C 152.398 264.448,179.172 264.463,184.053 261.973 C 184.915 261.533,187.461 260.801,189.711 260.346 C 192.366 259.808,194.909 258.971,196.963 257.959 C 198.703 257.102,200.348 256.400,200.618 256.400 C 200.888 256.400,202.164 255.696,203.454 254.835 C 204.744 253.975,206.610 252.958,207.600 252.576 C 208.590 252.194,209.940 251.386,210.600 250.781 C 211.260 250.175,212.359 249.346,213.042 248.939 C 213.726 248.532,214.896 247.604,215.642 246.876 C 216.389 246.149,218.855 243.923,221.122 241.930 C 223.389 239.937,225.960 237.337,226.835 236.153 C 227.710 234.969,228.585 234.000,228.780 234.000 C 228.975 234.000,229.539 233.325,230.034 232.500 C 230.528 231.675,231.465 230.565,232.115 230.033 C 232.765 229.501,233.565 228.421,233.892 227.633 C 234.220 226.845,235.068 225.390,235.777 224.400 C 236.487 223.410,237.475 221.572,237.974 220.316 C 238.472 219.059,239.144 217.812,239.466 217.545 C 240.391 216.777,241.102 215.149,241.771 212.263 C 242.111 210.794,242.816 208.739,243.336 207.696 C 244.459 205.442,244.974 203.379,245.555 198.800 C 245.792 196.930,246.379 192.461,246.859 188.868 C 247.706 182.526,247.713 182.200,247.070 177.668 C 246.706 175.101,246.123 170.690,245.774 167.867 C 245.063 162.120,244.365 159.085,243.247 156.888 C 242.830 156.070,242.084 153.892,241.587 152.048 C 240.998 149.861,240.295 148.252,239.563 147.419 C 238.947 146.717,238.059 145.117,237.590 143.865 C 237.121 142.612,236.327 141.095,235.825 140.494 C 235.323 139.892,234.593 138.770,234.203 138.000 C 233.812 137.230,232.842 135.853,232.046 134.940 C 229.390 131.891,227.411 129.485,226.200 127.835 C 224.854 126.001,221.024 122.361,218.600 120.612 C 217.720 119.977,216.190 118.774,215.200 117.938 C 214.210 117.102,212.680 115.808,211.800 115.063 C 210.920 114.318,209.348 113.335,208.307 112.880 C 207.265 112.424,205.825 111.617,205.107 111.088 C 204.388 110.558,202.762 109.714,201.493 109.213 C 200.224 108.712,199.088 108.142,198.968 107.948 C 198.502 107.195,196.217 106.330,192.708 105.580 C 190.696 105.150,188.318 104.448,187.425 104.020 C 186.531 103.592,185.278 103.046,184.639 102.807 C 183.579 102.411,167.144 101.128,164.800 101.258 C 164.250 101.289,160.470 101.538,156.400 101.811 " stroke="none" fill="#4c4c4c" fill-rule="evenodd"></path></g></svg>
